<?xml version="1.0" encoding="utf-8"?>
<svg xmlns="http://www.w3.org/2000/svg" xmlns:xlink="http://www.w3.org/1999/xlink" width="600" height="400" viewBox="0 0 2400 1600">
<defs>
  <clipPath id="clip110">
    <rect x="0" y="0" width="2400" height="1600"/>
  </clipPath>
</defs>
<path clip-path="url(#clip110)" d="M0 1600 L2400 1600 L2400 0 L0 0  Z" fill="#ffffff" fill-rule="evenodd" fill-opacity="1"/>
<defs>
  <clipPath id="clip111">
    <rect x="480" y="0" width="1681" height="1600"/>
  </clipPath>
</defs>
<defs>
  <clipPath id="clip112">
    <rect x="219" y="123" width="2134" height="1301"/>
  </clipPath>
</defs>
<path clip-path="url(#clip110)" d="M219.866 1423.18 L2352.76 1423.18 L2352.76 123.472 L219.866 123.472  Z" fill="#ffffff" fill-rule="evenodd" fill-opacity="1"/>
<polyline clip-path="url(#clip112)" style="stroke:#000000; stroke-linecap:round; stroke-linejoin:round; stroke-width:2; stroke-opacity:0.1; fill:none" points="305.383,1423.18 305.383,123.472 "/>
<polyline clip-path="url(#clip112)" style="stroke:#000000; stroke-linecap:round; stroke-linejoin:round; stroke-width:2; stroke-opacity:0.1; fill:none" points="808.423,1423.18 808.423,123.472 "/>
<polyline clip-path="url(#clip112)" style="stroke:#000000; stroke-linecap:round; stroke-linejoin:round; stroke-width:2; stroke-opacity:0.1; fill:none" points="1311.46,1423.18 1311.46,123.472 "/>
<polyline clip-path="url(#clip112)" style="stroke:#000000; stroke-linecap:round; stroke-linejoin:round; stroke-width:2; stroke-opacity:0.1; fill:none" points="1814.5,1423.18 1814.5,123.472 "/>
<polyline clip-path="url(#clip112)" style="stroke:#000000; stroke-linecap:round; stroke-linejoin:round; stroke-width:2; stroke-opacity:0.1; fill:none" points="2317.54,1423.18 2317.54,123.472 "/>
<polyline clip-path="url(#clip110)" style="stroke:#000000; stroke-linecap:round; stroke-linejoin:round; stroke-width:4; stroke-opacity:1; fill:none" points="219.866,1423.18 2352.76,1423.18 "/>
<polyline clip-path="url(#clip110)" style="stroke:#000000; stroke-linecap:round; stroke-linejoin:round; stroke-width:4; stroke-opacity:1; fill:none" points="305.383,1423.18 305.383,1404.28 "/>
<polyline clip-path="url(#clip110)" style="stroke:#000000; stroke-linecap:round; stroke-linejoin:round; stroke-width:4; stroke-opacity:1; fill:none" points="808.423,1423.18 808.423,1404.28 "/>
<polyline clip-path="url(#clip110)" style="stroke:#000000; stroke-linecap:round; stroke-linejoin:round; stroke-width:4; stroke-opacity:1; fill:none" points="1311.46,1423.18 1311.46,1404.28 "/>
<polyline clip-path="url(#clip110)" style="stroke:#000000; stroke-linecap:round; stroke-linejoin:round; stroke-width:4; stroke-opacity:1; fill:none" points="1814.5,1423.18 1814.5,1404.28 "/>
<polyline clip-path="url(#clip110)" style="stroke:#000000; stroke-linecap:round; stroke-linejoin:round; stroke-width:4; stroke-opacity:1; fill:none" points="2317.54,1423.18 2317.54,1404.28 "/>
<path clip-path="url(#clip110)" d="M274.284 1468.75 L303.959 1468.75 L303.959 1472.69 L274.284 1472.69 L274.284 1468.75 Z" fill="#000000" fill-rule="nonzero" fill-opacity="1" /><path clip-path="url(#clip110)" d="M326.899 1455.09 L315.094 1473.54 L326.899 1473.54 L326.899 1455.09 M325.672 1451.02 L331.552 1451.02 L331.552 1473.54 L336.482 1473.54 L336.482 1477.43 L331.552 1477.43 L331.552 1485.58 L326.899 1485.58 L326.899 1477.43 L311.297 1477.43 L311.297 1472.92 L325.672 1451.02 Z" fill="#000000" fill-rule="nonzero" fill-opacity="1" /><path clip-path="url(#clip110)" d="M778.365 1468.75 L808.041 1468.75 L808.041 1472.69 L778.365 1472.69 L778.365 1468.75 Z" fill="#000000" fill-rule="nonzero" fill-opacity="1" /><path clip-path="url(#clip110)" d="M822.161 1481.64 L838.481 1481.64 L838.481 1485.58 L816.536 1485.58 L816.536 1481.64 Q819.198 1478.89 823.782 1474.26 Q828.388 1469.61 829.569 1468.27 Q831.814 1465.74 832.694 1464.01 Q833.597 1462.25 833.597 1460.56 Q833.597 1457.8 831.652 1456.07 Q829.731 1454.33 826.629 1454.33 Q824.43 1454.33 821.976 1455.09 Q819.546 1455.86 816.768 1457.41 L816.768 1452.69 Q819.592 1451.55 822.046 1450.97 Q824.499 1450.39 826.536 1450.39 Q831.907 1450.39 835.101 1453.08 Q838.296 1455.77 838.296 1460.26 Q838.296 1462.39 837.485 1464.31 Q836.698 1466.2 834.592 1468.8 Q834.013 1469.47 830.911 1472.69 Q827.81 1475.88 822.161 1481.64 Z" fill="#000000" fill-rule="nonzero" fill-opacity="1" /><path clip-path="url(#clip110)" d="M1311.46 1454.1 Q1307.85 1454.1 1306.02 1457.66 Q1304.22 1461.2 1304.22 1468.33 Q1304.22 1475.44 1306.02 1479.01 Q1307.85 1482.55 1311.46 1482.55 Q1315.1 1482.55 1316.9 1479.01 Q1318.73 1475.44 1318.73 1468.33 Q1318.73 1461.2 1316.9 1457.66 Q1315.1 1454.1 1311.46 1454.1 M1311.46 1450.39 Q1317.27 1450.39 1320.33 1455 Q1323.41 1459.58 1323.41 1468.33 Q1323.41 1477.06 1320.33 1481.67 Q1317.27 1486.25 1311.46 1486.25 Q1305.65 1486.25 1302.57 1481.67 Q1299.52 1477.06 1299.52 1468.33 Q1299.52 1459.58 1302.57 1455 Q1305.65 1450.39 1311.46 1450.39 Z" fill="#000000" fill-rule="nonzero" fill-opacity="1" /><path clip-path="url(#clip110)" d="M1809.16 1481.64 L1825.48 1481.64 L1825.48 1485.58 L1803.53 1485.58 L1803.53 1481.64 Q1806.19 1478.89 1810.78 1474.26 Q1815.38 1469.61 1816.56 1468.27 Q1818.81 1465.74 1819.69 1464.01 Q1820.59 1462.25 1820.59 1460.56 Q1820.59 1457.8 1818.65 1456.07 Q1816.73 1454.33 1813.62 1454.33 Q1811.42 1454.33 1808.97 1455.09 Q1806.54 1455.86 1803.76 1457.41 L1803.76 1452.69 Q1806.59 1451.55 1809.04 1450.97 Q1811.49 1450.39 1813.53 1450.39 Q1818.9 1450.39 1822.1 1453.08 Q1825.29 1455.77 1825.29 1460.26 Q1825.29 1462.39 1824.48 1464.31 Q1823.69 1466.2 1821.59 1468.8 Q1821.01 1469.47 1817.91 1472.69 Q1814.8 1475.88 1809.16 1481.64 Z" fill="#000000" fill-rule="nonzero" fill-opacity="1" /><path clip-path="url(#clip110)" d="M2320.55 1455.09 L2308.75 1473.54 L2320.55 1473.54 L2320.55 1455.09 M2319.33 1451.02 L2325.21 1451.02 L2325.21 1473.54 L2330.14 1473.54 L2330.14 1477.43 L2325.21 1477.43 L2325.21 1485.58 L2320.55 1485.58 L2320.55 1477.43 L2304.95 1477.43 L2304.95 1472.92 L2319.33 1451.02 Z" fill="#000000" fill-rule="nonzero" fill-opacity="1" /><path clip-path="url(#clip110)" d="M1300.48 1528.8 Q1300.48 1530.61 1299.36 1531.64 Q1298.23 1532.64 1296.94 1532.64 Q1295.72 1532.64 1295.07 1531.93 Q1294.43 1531.22 1294.43 1530.32 Q1294.43 1529.09 1295.33 1528.03 Q1296.23 1526.97 1297.59 1526.74 Q1296.27 1525.91 1294.3 1525.91 Q1293.01 1525.91 1291.89 1526.58 Q1290.79 1527.26 1290.11 1528.13 Q1289.47 1529 1288.89 1530.25 Q1288.34 1531.48 1288.12 1532.22 Q1287.92 1532.93 1287.76 1533.7 L1285.51 1542.72 Q1284.41 1547 1284.41 1548.51 Q1284.41 1550.38 1285.32 1551.64 Q1286.22 1552.86 1288.02 1552.86 Q1288.73 1552.86 1289.53 1552.67 Q1290.34 1552.44 1291.37 1551.86 Q1292.43 1551.25 1293.37 1550.35 Q1294.33 1549.42 1295.27 1547.84 Q1296.2 1546.26 1296.81 1544.23 Q1297.01 1543.52 1297.65 1543.52 Q1298.46 1543.52 1298.46 1544.17 Q1298.46 1544.71 1298 1545.87 Q1297.59 1547 1296.65 1548.48 Q1295.75 1549.93 1294.56 1551.25 Q1293.37 1552.54 1291.6 1553.44 Q1289.82 1554.34 1287.89 1554.34 Q1285.12 1554.34 1283.29 1552.86 Q1281.45 1551.38 1280.77 1549.32 Q1280.61 1549.61 1280.39 1550 Q1280.16 1550.38 1279.49 1551.25 Q1278.84 1552.09 1278.1 1552.73 Q1277.36 1553.34 1276.2 1553.83 Q1275.07 1554.34 1273.85 1554.34 Q1272.3 1554.34 1270.92 1553.89 Q1269.57 1553.44 1268.6 1552.41 Q1267.63 1551.38 1267.63 1549.96 Q1267.63 1548.38 1268.7 1547.29 Q1269.79 1546.16 1271.27 1546.16 Q1272.21 1546.16 1272.95 1546.71 Q1273.72 1547.26 1273.72 1548.45 Q1273.72 1549.77 1272.82 1550.77 Q1271.92 1551.77 1270.63 1552.02 Q1271.95 1552.86 1273.91 1552.86 Q1276.04 1552.86 1277.71 1550.99 Q1279.39 1549.13 1280.19 1546 Q1282.19 1538.5 1282.96 1535.15 Q1283.74 1531.77 1283.74 1530.32 Q1283.74 1528.96 1283.38 1528.03 Q1283.03 1527.1 1282.42 1526.68 Q1281.84 1526.23 1281.29 1526.07 Q1280.77 1525.91 1280.19 1525.91 Q1279.23 1525.91 1278.13 1526.29 Q1277.07 1526.68 1275.78 1527.58 Q1274.53 1528.45 1273.33 1530.25 Q1272.14 1532.06 1271.34 1534.54 Q1271.18 1535.28 1270.47 1535.28 Q1269.7 1535.24 1269.7 1534.6 Q1269.7 1534.05 1270.11 1532.93 Q1270.57 1531.77 1271.47 1530.32 Q1272.4 1528.87 1273.59 1527.58 Q1274.82 1526.26 1276.59 1525.36 Q1278.39 1524.46 1280.32 1524.46 Q1281.19 1524.46 1282.03 1524.65 Q1282.9 1524.81 1283.93 1525.29 Q1284.99 1525.78 1285.93 1526.84 Q1286.86 1527.9 1287.44 1529.45 Q1287.83 1528.71 1288.34 1528 Q1288.89 1527.29 1289.73 1526.42 Q1290.6 1525.52 1291.79 1525 Q1293.01 1524.46 1294.37 1524.46 Q1295.69 1524.46 1296.97 1524.81 Q1298.26 1525.13 1299.36 1526.19 Q1300.48 1527.23 1300.48 1528.8 Z" fill="#000000" fill-rule="nonzero" fill-opacity="1" /><polyline clip-path="url(#clip112)" style="stroke:#000000; stroke-linecap:round; stroke-linejoin:round; stroke-width:2; stroke-opacity:0.1; fill:none" points="219.866,1386.4 2352.76,1386.4 "/>
<polyline clip-path="url(#clip112)" style="stroke:#000000; stroke-linecap:round; stroke-linejoin:round; stroke-width:2; stroke-opacity:0.1; fill:none" points="219.866,1089.01 2352.76,1089.01 "/>
<polyline clip-path="url(#clip112)" style="stroke:#000000; stroke-linecap:round; stroke-linejoin:round; stroke-width:2; stroke-opacity:0.1; fill:none" points="219.866,791.615 2352.76,791.615 "/>
<polyline clip-path="url(#clip112)" style="stroke:#000000; stroke-linecap:round; stroke-linejoin:round; stroke-width:2; stroke-opacity:0.1; fill:none" points="219.866,494.225 2352.76,494.225 "/>
<polyline clip-path="url(#clip112)" style="stroke:#000000; stroke-linecap:round; stroke-linejoin:round; stroke-width:2; stroke-opacity:0.1; fill:none" points="219.866,196.835 2352.76,196.835 "/>
<polyline clip-path="url(#clip110)" style="stroke:#000000; stroke-linecap:round; stroke-linejoin:round; stroke-width:4; stroke-opacity:1; fill:none" points="219.866,1423.18 219.866,123.472 "/>
<polyline clip-path="url(#clip110)" style="stroke:#000000; stroke-linecap:round; stroke-linejoin:round; stroke-width:4; stroke-opacity:1; fill:none" points="219.866,1386.4 238.764,1386.4 "/>
<polyline clip-path="url(#clip110)" style="stroke:#000000; stroke-linecap:round; stroke-linejoin:round; stroke-width:4; stroke-opacity:1; fill:none" points="219.866,1089.01 238.764,1089.01 "/>
<polyline clip-path="url(#clip110)" style="stroke:#000000; stroke-linecap:round; stroke-linejoin:round; stroke-width:4; stroke-opacity:1; fill:none" points="219.866,791.615 238.764,791.615 "/>
<polyline clip-path="url(#clip110)" style="stroke:#000000; stroke-linecap:round; stroke-linejoin:round; stroke-width:4; stroke-opacity:1; fill:none" points="219.866,494.225 238.764,494.225 "/>
<polyline clip-path="url(#clip110)" style="stroke:#000000; stroke-linecap:round; stroke-linejoin:round; stroke-width:4; stroke-opacity:1; fill:none" points="219.866,196.835 238.764,196.835 "/>
<path clip-path="url(#clip110)" d="M126.691 1372.19 Q123.08 1372.19 121.251 1375.76 Q119.445 1379.3 119.445 1386.43 Q119.445 1393.54 121.251 1397.1 Q123.08 1400.64 126.691 1400.64 Q130.325 1400.64 132.13 1397.1 Q133.959 1393.54 133.959 1386.43 Q133.959 1379.3 132.13 1375.76 Q130.325 1372.19 126.691 1372.19 M126.691 1368.49 Q132.501 1368.49 135.556 1373.1 Q138.635 1377.68 138.635 1386.43 Q138.635 1395.16 135.556 1399.76 Q132.501 1404.35 126.691 1404.35 Q120.88 1404.35 117.802 1399.76 Q114.746 1395.16 114.746 1386.43 Q114.746 1377.68 117.802 1373.1 Q120.88 1368.49 126.691 1368.49 Z" fill="#000000" fill-rule="nonzero" fill-opacity="1" /><path clip-path="url(#clip110)" d="M146.853 1397.8 L151.737 1397.8 L151.737 1403.68 L146.853 1403.68 L146.853 1397.8 Z" fill="#000000" fill-rule="nonzero" fill-opacity="1" /><path clip-path="url(#clip110)" d="M171.922 1372.19 Q168.311 1372.19 166.482 1375.76 Q164.677 1379.3 164.677 1386.43 Q164.677 1393.54 166.482 1397.1 Q168.311 1400.64 171.922 1400.64 Q175.556 1400.64 177.362 1397.1 Q179.19 1393.54 179.19 1386.43 Q179.19 1379.3 177.362 1375.76 Q175.556 1372.19 171.922 1372.19 M171.922 1368.49 Q177.732 1368.49 180.788 1373.1 Q183.866 1377.68 183.866 1386.43 Q183.866 1395.16 180.788 1399.76 Q177.732 1404.35 171.922 1404.35 Q166.112 1404.35 163.033 1399.76 Q159.978 1395.16 159.978 1386.43 Q159.978 1377.68 163.033 1373.1 Q166.112 1368.49 171.922 1368.49 Z" fill="#000000" fill-rule="nonzero" fill-opacity="1" /><path clip-path="url(#clip110)" d="M127.917 1074.8 Q124.306 1074.8 122.478 1078.37 Q120.672 1081.91 120.672 1089.04 Q120.672 1096.15 122.478 1099.71 Q124.306 1103.25 127.917 1103.25 Q131.552 1103.25 133.357 1099.71 Q135.186 1096.15 135.186 1089.04 Q135.186 1081.91 133.357 1078.37 Q131.552 1074.8 127.917 1074.8 M127.917 1071.1 Q133.728 1071.1 136.783 1075.71 Q139.862 1080.29 139.862 1089.04 Q139.862 1097.77 136.783 1102.37 Q133.728 1106.96 127.917 1106.96 Q122.107 1106.96 119.029 1102.37 Q115.973 1097.77 115.973 1089.04 Q115.973 1080.29 119.029 1075.71 Q122.107 1071.1 127.917 1071.1 Z" fill="#000000" fill-rule="nonzero" fill-opacity="1" /><path clip-path="url(#clip110)" d="M148.079 1100.41 L152.964 1100.41 L152.964 1106.29 L148.079 1106.29 L148.079 1100.41 Z" fill="#000000" fill-rule="nonzero" fill-opacity="1" /><path clip-path="url(#clip110)" d="M163.959 1102.35 L171.598 1102.35 L171.598 1075.98 L163.288 1077.65 L163.288 1073.39 L171.552 1071.73 L176.227 1071.73 L176.227 1102.35 L183.866 1102.35 L183.866 1106.29 L163.959 1106.29 L163.959 1102.35 Z" fill="#000000" fill-rule="nonzero" fill-opacity="1" /><path clip-path="url(#clip110)" d="M128.288 777.414 Q124.677 777.414 122.848 780.979 Q121.043 784.521 121.043 791.65 Q121.043 798.757 122.848 802.321 Q124.677 805.863 128.288 805.863 Q131.922 805.863 133.728 802.321 Q135.556 798.757 135.556 791.65 Q135.556 784.521 133.728 780.979 Q131.922 777.414 128.288 777.414 M128.288 773.71 Q134.098 773.71 137.154 778.317 Q140.232 782.9 140.232 791.65 Q140.232 800.377 137.154 804.983 Q134.098 809.567 128.288 809.567 Q122.478 809.567 119.399 804.983 Q116.343 800.377 116.343 791.65 Q116.343 782.9 119.399 778.317 Q122.478 773.71 128.288 773.71 Z" fill="#000000" fill-rule="nonzero" fill-opacity="1" /><path clip-path="url(#clip110)" d="M148.45 803.016 L153.334 803.016 L153.334 808.895 L148.45 808.895 L148.45 803.016 Z" fill="#000000" fill-rule="nonzero" fill-opacity="1" /><path clip-path="url(#clip110)" d="M167.547 804.96 L183.866 804.96 L183.866 808.895 L161.922 808.895 L161.922 804.96 Q164.584 802.206 169.167 797.576 Q173.774 792.923 174.954 791.581 Q177.2 789.058 178.079 787.322 Q178.982 785.562 178.982 783.872 Q178.982 781.118 177.038 779.382 Q175.116 777.646 172.014 777.646 Q169.815 777.646 167.362 778.41 Q164.931 779.173 162.153 780.724 L162.153 776.002 Q164.977 774.868 167.431 774.289 Q169.885 773.71 171.922 773.71 Q177.292 773.71 180.487 776.396 Q183.681 779.081 183.681 783.572 Q183.681 785.701 182.871 787.622 Q182.084 789.521 179.977 792.113 Q179.399 792.784 176.297 796.002 Q173.195 799.196 167.547 804.96 Z" fill="#000000" fill-rule="nonzero" fill-opacity="1" /><path clip-path="url(#clip110)" d="M127.339 480.024 Q123.728 480.024 121.899 483.589 Q120.093 487.131 120.093 494.26 Q120.093 501.367 121.899 504.931 Q123.728 508.473 127.339 508.473 Q130.973 508.473 132.779 504.931 Q134.607 501.367 134.607 494.26 Q134.607 487.131 132.779 483.589 Q130.973 480.024 127.339 480.024 M127.339 476.32 Q133.149 476.32 136.204 480.927 Q139.283 485.51 139.283 494.26 Q139.283 502.987 136.204 507.593 Q133.149 512.177 127.339 512.177 Q121.529 512.177 118.45 507.593 Q115.394 502.987 115.394 494.26 Q115.394 485.51 118.45 480.927 Q121.529 476.32 127.339 476.32 Z" fill="#000000" fill-rule="nonzero" fill-opacity="1" /><path clip-path="url(#clip110)" d="M147.501 505.626 L152.385 505.626 L152.385 511.505 L147.501 511.505 L147.501 505.626 Z" fill="#000000" fill-rule="nonzero" fill-opacity="1" /><path clip-path="url(#clip110)" d="M176.737 492.871 Q180.093 493.589 181.968 495.857 Q183.866 498.126 183.866 501.459 Q183.866 506.575 180.348 509.376 Q176.829 512.177 170.348 512.177 Q168.172 512.177 165.857 511.737 Q163.565 511.32 161.112 510.464 L161.112 505.95 Q163.056 507.084 165.371 507.663 Q167.686 508.242 170.209 508.242 Q174.607 508.242 176.899 506.505 Q179.214 504.769 179.214 501.459 Q179.214 498.404 177.061 496.691 Q174.931 494.955 171.112 494.955 L167.084 494.955 L167.084 491.112 L171.297 491.112 Q174.746 491.112 176.575 489.746 Q178.403 488.357 178.403 485.765 Q178.403 483.103 176.505 481.691 Q174.63 480.256 171.112 480.256 Q169.19 480.256 166.991 480.672 Q164.792 481.089 162.153 481.969 L162.153 477.802 Q164.815 477.061 167.13 476.691 Q169.468 476.32 171.528 476.32 Q176.852 476.32 179.954 478.751 Q183.056 481.158 183.056 485.279 Q183.056 488.149 181.413 490.14 Q179.769 492.107 176.737 492.871 Z" fill="#000000" fill-rule="nonzero" fill-opacity="1" /><path clip-path="url(#clip110)" d="M126.205 182.634 Q122.593 182.634 120.765 186.199 Q118.959 189.74 118.959 196.87 Q118.959 203.976 120.765 207.541 Q122.593 211.083 126.205 211.083 Q129.839 211.083 131.644 207.541 Q133.473 203.976 133.473 196.87 Q133.473 189.74 131.644 186.199 Q129.839 182.634 126.205 182.634 M126.205 178.93 Q132.015 178.93 135.07 183.537 Q138.149 188.12 138.149 196.87 Q138.149 205.597 135.07 210.203 Q132.015 214.787 126.205 214.787 Q120.394 214.787 117.316 210.203 Q114.26 205.597 114.26 196.87 Q114.26 188.12 117.316 183.537 Q120.394 178.93 126.205 178.93 Z" fill="#000000" fill-rule="nonzero" fill-opacity="1" /><path clip-path="url(#clip110)" d="M146.366 208.236 L151.251 208.236 L151.251 214.115 L146.366 214.115 L146.366 208.236 Z" fill="#000000" fill-rule="nonzero" fill-opacity="1" /><path clip-path="url(#clip110)" d="M174.283 183.629 L162.477 202.078 L174.283 202.078 L174.283 183.629 M173.056 179.555 L178.936 179.555 L178.936 202.078 L183.866 202.078 L183.866 205.967 L178.936 205.967 L178.936 214.115 L174.283 214.115 L174.283 205.967 L158.681 205.967 L158.681 201.453 L173.056 179.555 Z" fill="#000000" fill-rule="nonzero" fill-opacity="1" /><path clip-path="url(#clip110)" d="M33.7671 864.053 L14.479 864.053 L14.479 858.197 L64.0042 858.197 L64.0042 864.053 L58.657 864.053 Q61.8398 865.899 63.3994 868.732 Q64.9272 871.533 64.9272 875.48 Q64.9272 881.941 59.771 886.015 Q54.6147 890.057 46.212 890.057 Q37.8093 890.057 32.6531 886.015 Q27.4968 881.941 27.4968 875.48 Q27.4968 871.533 29.0564 868.732 Q30.5842 865.899 33.7671 864.053 M46.212 884.01 Q52.6732 884.01 56.3653 881.368 Q60.0256 878.694 60.0256 874.047 Q60.0256 869.4 56.3653 866.727 Q52.6732 864.053 46.212 864.053 Q39.7508 864.053 36.0905 866.727 Q32.3984 869.4 32.3984 874.047 Q32.3984 878.694 36.0905 881.368 Q39.7508 884.01 46.212 884.01 Z" fill="#000000" fill-rule="nonzero" fill-opacity="1" /><path clip-path="url(#clip110)" d="M44.7161 815.642 L47.5806 815.642 L47.5806 842.569 Q53.6281 842.187 56.8109 838.941 Q59.9619 835.662 59.9619 829.838 Q59.9619 826.464 59.1344 823.313 Q58.3069 820.13 56.6518 817.011 L62.1899 817.011 Q63.5267 820.162 64.227 823.472 Q64.9272 826.782 64.9272 830.188 Q64.9272 838.718 59.9619 843.715 Q54.9967 848.68 46.5303 848.68 Q37.7774 848.68 32.6531 843.969 Q27.4968 839.227 27.4968 831.206 Q27.4968 824.013 32.1438 819.843 Q36.7589 815.642 44.7161 815.642 M42.9973 821.498 Q38.1912 821.562 35.3266 824.204 Q32.4621 826.814 32.4621 831.143 Q32.4621 836.044 35.2312 839.004 Q38.0002 841.932 43.0292 842.378 L42.9973 821.498 Z" fill="#000000" fill-rule="nonzero" fill-opacity="1" /><path clip-path="url(#clip110)" d="M42.4881 776.397 L64.0042 776.397 L64.0042 782.254 L42.679 782.254 Q37.6183 782.254 35.1038 784.227 Q32.5894 786.201 32.5894 790.147 Q32.5894 794.89 35.6131 797.627 Q38.6368 800.364 43.8567 800.364 L64.0042 800.364 L64.0042 806.253 L28.3562 806.253 L28.3562 800.364 L33.8944 800.364 Q30.6797 798.264 29.0883 795.431 Q27.4968 792.566 27.4968 788.842 Q27.4968 782.699 31.3163 779.548 Q35.1038 776.397 42.4881 776.397 Z" fill="#000000" fill-rule="nonzero" fill-opacity="1" /><path clip-path="url(#clip110)" d="M29.4065 741.991 L34.9447 741.991 Q33.6716 744.473 33.035 747.147 Q32.3984 749.821 32.3984 752.685 Q32.3984 757.046 33.7352 759.242 Q35.072 761.406 37.7456 761.406 Q39.7826 761.406 40.9603 759.847 Q42.1061 758.287 43.1565 753.576 L43.6021 751.571 Q44.9389 745.333 47.3897 742.723 Q49.8086 740.081 54.1691 740.081 Q59.1344 740.081 62.0308 744.028 Q64.9272 747.943 64.9272 754.818 Q64.9272 757.682 64.3543 760.801 Q63.8132 763.889 62.6992 767.326 L56.6518 767.326 Q58.3387 764.08 59.198 760.929 Q60.0256 757.778 60.0256 754.69 Q60.0256 750.553 58.6251 748.325 Q57.1929 746.097 54.6147 746.097 Q52.2276 746.097 50.9545 747.72 Q49.6813 749.311 48.5037 754.754 L48.0262 756.791 Q46.8804 762.234 44.5251 764.653 Q42.138 767.072 38.0002 767.072 Q32.9713 767.072 30.2341 763.507 Q27.4968 759.942 27.4968 753.385 Q27.4968 750.139 27.9743 747.274 Q28.4517 744.41 29.4065 741.991 Z" fill="#000000" fill-rule="nonzero" fill-opacity="1" /><path clip-path="url(#clip110)" d="M28.3562 730.755 L28.3562 724.899 L64.0042 724.899 L64.0042 730.755 L28.3562 730.755 M14.479 730.755 L14.479 724.899 L21.895 724.899 L21.895 730.755 L14.479 730.755 Z" fill="#000000" fill-rule="nonzero" fill-opacity="1" /><path clip-path="url(#clip110)" d="M18.2347 706.852 L28.3562 706.852 L28.3562 694.789 L32.9077 694.789 L32.9077 706.852 L52.2594 706.852 Q56.6199 706.852 57.8613 705.674 Q59.1026 704.465 59.1026 700.805 L59.1026 694.789 L64.0042 694.789 L64.0042 700.805 Q64.0042 707.584 61.4897 710.162 Q58.9434 712.74 52.2594 712.74 L32.9077 712.74 L32.9077 717.037 L28.3562 717.037 L28.3562 712.74 L18.2347 712.74 L18.2347 706.852 Z" fill="#000000" fill-rule="nonzero" fill-opacity="1" /><path clip-path="url(#clip110)" d="M67.3143 672.254 Q73.68 674.737 75.6216 677.092 Q77.5631 679.448 77.5631 683.394 L77.5631 688.073 L72.6615 688.073 L72.6615 684.636 Q72.6615 682.217 71.5157 680.88 Q70.3699 679.543 66.1048 677.92 L63.4312 676.87 L28.3562 691.288 L28.3562 685.081 L56.238 673.941 L28.3562 662.801 L28.3562 656.595 L67.3143 672.254 Z" fill="#000000" fill-rule="nonzero" fill-opacity="1" /><path clip-path="url(#clip110)" d="M555.629 18.8205 L555.629 65.8515 L565.513 65.8515 Q578.031 65.8515 583.824 60.1802 Q589.657 54.509 589.657 42.2752 Q589.657 30.1225 583.824 24.4918 Q578.031 18.8205 565.513 18.8205 L555.629 18.8205 M547.446 12.096 L564.258 12.096 Q581.839 12.096 590.062 19.4281 Q598.285 26.7198 598.285 42.2752 Q598.285 57.9117 590.021 65.2439 Q581.758 72.576 564.258 72.576 L547.446 72.576 L547.446 12.096 Z" fill="#000000" fill-rule="nonzero" fill-opacity="1" /><path clip-path="url(#clip110)" d="M649.813 48.0275 L649.813 51.6733 L615.542 51.6733 Q616.028 59.3701 620.16 63.421 Q624.333 67.4314 631.746 67.4314 Q636.04 67.4314 640.05 66.3781 Q644.101 65.3249 648.071 63.2184 L648.071 70.267 Q644.06 71.9684 639.848 72.8596 Q635.635 73.7508 631.3 73.7508 Q620.444 73.7508 614.084 67.4314 Q607.764 61.1119 607.764 50.3365 Q607.764 39.1965 613.76 32.6746 Q619.796 26.1121 630.004 26.1121 Q639.159 26.1121 644.466 32.0264 Q649.813 37.9003 649.813 48.0275 M642.359 45.84 Q642.278 39.7232 638.916 36.0774 Q635.594 32.4315 630.085 32.4315 Q623.846 32.4315 620.079 35.9558 Q616.352 39.4801 615.785 45.8805 L642.359 45.84 Z" fill="#000000" fill-rule="nonzero" fill-opacity="1" /><path clip-path="url(#clip110)" d="M699.76 45.1919 L699.76 72.576 L692.307 72.576 L692.307 45.4349 Q692.307 38.994 689.795 35.7938 Q687.284 32.5936 682.261 32.5936 Q676.225 32.5936 672.741 36.4419 Q669.257 40.2903 669.257 46.9338 L669.257 72.576 L661.763 72.576 L661.763 27.2059 L669.257 27.2059 L669.257 34.2544 Q671.931 30.163 675.536 28.1376 Q679.182 26.1121 683.921 26.1121 Q691.74 26.1121 695.75 30.9732 Q699.76 35.7938 699.76 45.1919 Z" fill="#000000" fill-rule="nonzero" fill-opacity="1" /><path clip-path="url(#clip110)" d="M743.551 28.5427 L743.551 35.5912 Q740.391 33.9709 736.988 33.1607 Q733.585 32.3505 729.94 32.3505 Q724.39 32.3505 721.595 34.0519 Q718.84 35.7533 718.84 39.156 Q718.84 41.7486 720.825 43.2475 Q722.81 44.7058 728.805 46.0426 L731.357 46.6097 Q739.297 48.3111 742.619 51.4303 Q745.981 54.509 745.981 60.0587 Q745.981 66.3781 740.958 70.0644 Q735.975 73.7508 727.226 73.7508 Q723.58 73.7508 719.61 73.0216 Q715.68 72.3329 711.305 70.9151 L711.305 63.2184 Q715.437 65.3654 719.448 66.4591 Q723.458 67.5124 727.388 67.5124 Q732.654 67.5124 735.489 65.73 Q738.325 63.9071 738.325 60.6258 Q738.325 57.5877 736.259 55.9673 Q734.234 54.3469 727.307 52.8481 L724.714 52.2405 Q717.787 50.7821 714.708 47.7845 Q711.63 44.7463 711.63 39.4801 Q711.63 33.0797 716.167 29.5959 Q720.704 26.1121 729.048 26.1121 Q733.18 26.1121 736.826 26.7198 Q740.472 27.3274 743.551 28.5427 Z" fill="#000000" fill-rule="nonzero" fill-opacity="1" /><path clip-path="url(#clip110)" d="M757.85 27.2059 L765.304 27.2059 L765.304 72.576 L757.85 72.576 L757.85 27.2059 M757.85 9.54393 L765.304 9.54393 L765.304 18.9825 L757.85 18.9825 L757.85 9.54393 Z" fill="#000000" fill-rule="nonzero" fill-opacity="1" /><path clip-path="url(#clip110)" d="M788.273 14.324 L788.273 27.2059 L803.626 27.2059 L803.626 32.9987 L788.273 32.9987 L788.273 57.6282 Q788.273 63.1779 789.772 64.7578 Q791.311 66.3376 795.969 66.3376 L803.626 66.3376 L803.626 72.576 L795.969 72.576 Q787.341 72.576 784.06 69.3758 Q780.778 66.1351 780.778 57.6282 L780.778 32.9987 L775.31 32.9987 L775.31 27.2059 L780.778 27.2059 L780.778 14.324 L788.273 14.324 Z" fill="#000000" fill-rule="nonzero" fill-opacity="1" /><path clip-path="url(#clip110)" d="M832.306 76.7889 Q829.146 84.8907 826.149 87.3618 Q823.151 89.8329 818.128 89.8329 L812.173 89.8329 L812.173 83.5945 L816.548 83.5945 Q819.627 83.5945 821.328 82.1361 Q823.029 80.6778 825.095 75.2496 L826.432 71.8468 L808.082 27.2059 L815.981 27.2059 L830.159 62.6918 L844.337 27.2059 L852.236 27.2059 L832.306 76.7889 Z" fill="#000000" fill-rule="nonzero" fill-opacity="1" /><path clip-path="url(#clip110)" d="M906.478 32.4315 Q900.483 32.4315 896.999 37.1306 Q893.515 41.7891 893.515 49.9314 Q893.515 58.0738 896.958 62.7728 Q900.442 67.4314 906.478 67.4314 Q912.433 67.4314 915.917 62.7323 Q919.4 58.0333 919.4 49.9314 Q919.4 41.8701 915.917 37.1711 Q912.433 32.4315 906.478 32.4315 M906.478 26.1121 Q916.2 26.1121 921.75 32.4315 Q927.3 38.7509 927.3 49.9314 Q927.3 61.0714 921.75 67.4314 Q916.2 73.7508 906.478 73.7508 Q896.715 73.7508 891.166 67.4314 Q885.656 61.0714 885.656 49.9314 Q885.656 38.7509 891.166 32.4315 Q896.715 26.1121 906.478 26.1121 Z" fill="#000000" fill-rule="nonzero" fill-opacity="1" /><path clip-path="url(#clip110)" d="M962.624 9.54393 L962.624 15.7418 L955.494 15.7418 Q951.484 15.7418 949.904 17.3622 Q948.364 18.9825 948.364 23.1955 L948.364 27.2059 L960.639 27.2059 L960.639 32.9987 L948.364 32.9987 L948.364 72.576 L940.87 72.576 L940.87 32.9987 L933.741 32.9987 L933.741 27.2059 L940.87 27.2059 L940.87 24.0462 Q940.87 16.471 944.395 13.0277 Q947.919 9.54393 955.575 9.54393 L962.624 9.54393 Z" fill="#000000" fill-rule="nonzero" fill-opacity="1" /><path clip-path="url(#clip110)" d="M1003.74 18.8205 L1003.74 41.5461 L1014.03 41.5461 Q1019.74 41.5461 1022.86 38.5889 Q1025.98 35.6318 1025.98 30.163 Q1025.98 24.7348 1022.86 21.7777 Q1019.74 18.8205 1014.03 18.8205 L1003.74 18.8205 M995.557 12.096 L1014.03 12.096 Q1024.2 12.096 1029.38 16.714 Q1034.61 21.2916 1034.61 30.163 Q1034.61 39.1155 1029.38 43.6931 Q1024.2 48.2706 1014.03 48.2706 L1003.74 48.2706 L1003.74 72.576 L995.557 72.576 L995.557 12.096 Z" fill="#000000" fill-rule="nonzero" fill-opacity="1" /><path clip-path="url(#clip110)" d="M1059.89 32.4315 Q1053.89 32.4315 1050.41 37.1306 Q1046.92 41.7891 1046.92 49.9314 Q1046.92 58.0738 1050.37 62.7728 Q1053.85 67.4314 1059.89 67.4314 Q1065.84 67.4314 1069.32 62.7323 Q1072.81 58.0333 1072.81 49.9314 Q1072.81 41.8701 1069.32 37.1711 Q1065.84 32.4315 1059.89 32.4315 M1059.89 26.1121 Q1069.61 26.1121 1075.16 32.4315 Q1080.71 38.7509 1080.71 49.9314 Q1080.71 61.0714 1075.16 67.4314 Q1069.61 73.7508 1059.89 73.7508 Q1050.12 73.7508 1044.57 67.4314 Q1039.06 61.0714 1039.06 49.9314 Q1039.06 38.7509 1044.57 32.4315 Q1050.12 26.1121 1059.89 26.1121 Z" fill="#000000" fill-rule="nonzero" fill-opacity="1" /><path clip-path="url(#clip110)" d="M1121.99 28.5427 L1121.99 35.5912 Q1118.83 33.9709 1115.42 33.1607 Q1112.02 32.3505 1108.38 32.3505 Q1102.83 32.3505 1100.03 34.0519 Q1097.28 35.7533 1097.28 39.156 Q1097.28 41.7486 1099.26 43.2475 Q1101.25 44.7058 1107.24 46.0426 L1109.79 46.6097 Q1117.73 48.3111 1121.05 51.4303 Q1124.42 54.509 1124.42 60.0587 Q1124.42 66.3781 1119.39 70.0644 Q1114.41 73.7508 1105.66 73.7508 Q1102.02 73.7508 1098.05 73.0216 Q1094.12 72.3329 1089.74 70.9151 L1089.74 63.2184 Q1093.87 65.3654 1097.88 66.4591 Q1101.89 67.5124 1105.82 67.5124 Q1111.09 67.5124 1113.92 65.73 Q1116.76 63.9071 1116.76 60.6258 Q1116.76 57.5877 1114.69 55.9673 Q1112.67 54.3469 1105.74 52.8481 L1103.15 52.2405 Q1096.22 50.7821 1093.14 47.7845 Q1090.07 44.7463 1090.07 39.4801 Q1090.07 33.0797 1094.6 29.5959 Q1099.14 26.1121 1107.48 26.1121 Q1111.62 26.1121 1115.26 26.7198 Q1118.91 27.3274 1121.99 28.5427 Z" fill="#000000" fill-rule="nonzero" fill-opacity="1" /><path clip-path="url(#clip110)" d="M1136.29 27.2059 L1143.74 27.2059 L1143.74 72.576 L1136.29 72.576 L1136.29 27.2059 M1136.29 9.54393 L1143.74 9.54393 L1143.74 18.9825 L1136.29 18.9825 L1136.29 9.54393 Z" fill="#000000" fill-rule="nonzero" fill-opacity="1" /><path clip-path="url(#clip110)" d="M1166.71 14.324 L1166.71 27.2059 L1182.06 27.2059 L1182.06 32.9987 L1166.71 32.9987 L1166.71 57.6282 Q1166.71 63.1779 1168.21 64.7578 Q1169.75 66.3376 1174.4 66.3376 L1182.06 66.3376 L1182.06 72.576 L1174.4 72.576 Q1165.78 72.576 1162.5 69.3758 Q1159.21 66.1351 1159.21 57.6282 L1159.21 32.9987 L1153.75 32.9987 L1153.75 27.2059 L1159.21 27.2059 L1159.21 14.324 L1166.71 14.324 Z" fill="#000000" fill-rule="nonzero" fill-opacity="1" /><path clip-path="url(#clip110)" d="M1191.86 27.2059 L1199.32 27.2059 L1199.32 72.576 L1191.86 72.576 L1191.86 27.2059 M1191.86 9.54393 L1199.32 9.54393 L1199.32 18.9825 L1191.86 18.9825 L1191.86 9.54393 Z" fill="#000000" fill-rule="nonzero" fill-opacity="1" /><path clip-path="url(#clip110)" d="M1232.49 32.4315 Q1226.5 32.4315 1223.02 37.1306 Q1219.53 41.7891 1219.53 49.9314 Q1219.53 58.0738 1222.98 62.7728 Q1226.46 67.4314 1232.49 67.4314 Q1238.45 67.4314 1241.93 62.7323 Q1245.42 58.0333 1245.42 49.9314 Q1245.42 41.8701 1241.93 37.1711 Q1238.45 32.4315 1232.49 32.4315 M1232.49 26.1121 Q1242.22 26.1121 1247.77 32.4315 Q1253.32 38.7509 1253.32 49.9314 Q1253.32 61.0714 1247.77 67.4314 Q1242.22 73.7508 1232.49 73.7508 Q1222.73 73.7508 1217.18 67.4314 Q1211.67 61.0714 1211.67 49.9314 Q1211.67 38.7509 1217.18 32.4315 Q1222.73 26.1121 1232.49 26.1121 Z" fill="#000000" fill-rule="nonzero" fill-opacity="1" /><path clip-path="url(#clip110)" d="M1303.39 45.1919 L1303.39 72.576 L1295.93 72.576 L1295.93 45.4349 Q1295.93 38.994 1293.42 35.7938 Q1290.91 32.5936 1285.89 32.5936 Q1279.85 32.5936 1276.37 36.4419 Q1272.88 40.2903 1272.88 46.9338 L1272.88 72.576 L1265.39 72.576 L1265.39 27.2059 L1272.88 27.2059 L1272.88 34.2544 Q1275.56 30.163 1279.16 28.1376 Q1282.81 26.1121 1287.55 26.1121 Q1295.36 26.1121 1299.38 30.9732 Q1303.39 35.7938 1303.39 45.1919 Z" fill="#000000" fill-rule="nonzero" fill-opacity="1" /><path clip-path="url(#clip110)" d="M1347.18 28.5427 L1347.18 35.5912 Q1344.02 33.9709 1340.61 33.1607 Q1337.21 32.3505 1333.56 32.3505 Q1328.02 32.3505 1325.22 34.0519 Q1322.47 35.7533 1322.47 39.156 Q1322.47 41.7486 1324.45 43.2475 Q1326.44 44.7058 1332.43 46.0426 L1334.98 46.6097 Q1342.92 48.3111 1346.24 51.4303 Q1349.61 54.509 1349.61 60.0587 Q1349.61 66.3781 1344.58 70.0644 Q1339.6 73.7508 1330.85 73.7508 Q1327.2 73.7508 1323.24 73.0216 Q1319.31 72.3329 1314.93 70.9151 L1314.93 63.2184 Q1319.06 65.3654 1323.07 66.4591 Q1327.08 67.5124 1331.01 67.5124 Q1336.28 67.5124 1339.11 65.73 Q1341.95 63.9071 1341.95 60.6258 Q1341.95 57.5877 1339.88 55.9673 Q1337.86 54.3469 1330.93 52.8481 L1328.34 52.2405 Q1321.41 50.7821 1318.33 47.7845 Q1315.25 44.7463 1315.25 39.4801 Q1315.25 33.0797 1319.79 29.5959 Q1324.33 26.1121 1332.67 26.1121 Q1336.81 26.1121 1340.45 26.7198 Q1344.1 27.3274 1347.18 28.5427 Z" fill="#000000" fill-rule="nonzero" fill-opacity="1" /><path clip-path="url(#clip110)" d="M1383.51 27.2059 L1390.97 27.2059 L1400.28 62.6108 L1409.56 27.2059 L1418.35 27.2059 L1427.67 62.6108 L1436.94 27.2059 L1444.4 27.2059 L1432.53 72.576 L1423.74 72.576 L1413.98 35.3887 L1404.17 72.576 L1395.38 72.576 L1383.51 27.2059 Z" fill="#000000" fill-rule="nonzero" fill-opacity="1" /><path clip-path="url(#clip110)" d="M1455.7 27.2059 L1463.15 27.2059 L1463.15 72.576 L1455.7 72.576 L1455.7 27.2059 M1455.7 9.54393 L1463.15 9.54393 L1463.15 18.9825 L1455.7 18.9825 L1455.7 9.54393 Z" fill="#000000" fill-rule="nonzero" fill-opacity="1" /><path clip-path="url(#clip110)" d="M1486.12 14.324 L1486.12 27.2059 L1501.47 27.2059 L1501.47 32.9987 L1486.12 32.9987 L1486.12 57.6282 Q1486.12 63.1779 1487.62 64.7578 Q1489.16 66.3376 1493.82 66.3376 L1501.47 66.3376 L1501.47 72.576 L1493.82 72.576 Q1485.19 72.576 1481.91 69.3758 Q1478.63 66.1351 1478.63 57.6282 L1478.63 32.9987 L1473.16 32.9987 L1473.16 27.2059 L1478.63 27.2059 L1478.63 14.324 L1486.12 14.324 Z" fill="#000000" fill-rule="nonzero" fill-opacity="1" /><path clip-path="url(#clip110)" d="M1548.99 45.1919 L1548.99 72.576 L1541.54 72.576 L1541.54 45.4349 Q1541.54 38.994 1539.03 35.7938 Q1536.52 32.5936 1531.49 32.5936 Q1525.46 32.5936 1521.97 36.4419 Q1518.49 40.2903 1518.49 46.9338 L1518.49 72.576 L1510.99 72.576 L1510.99 9.54393 L1518.49 9.54393 L1518.49 34.2544 Q1521.16 30.163 1524.77 28.1376 Q1528.41 26.1121 1533.15 26.1121 Q1540.97 26.1121 1544.98 30.9732 Q1548.99 35.7938 1548.99 45.1919 Z" fill="#000000" fill-rule="nonzero" fill-opacity="1" /><path clip-path="url(#clip110)" d="M1590.55 12.096 L1601.57 12.096 L1628.39 62.6918 L1628.39 12.096 L1636.33 12.096 L1636.33 72.576 L1625.31 72.576 L1598.49 21.9802 L1598.49 72.576 L1590.55 72.576 L1590.55 12.096 Z" fill="#000000" fill-rule="nonzero" fill-opacity="1" /><path clip-path="url(#clip110)" d="M1653.26 34.9026 L1705.19 34.9026 L1705.19 41.7081 L1653.26 41.7081 L1653.26 34.9026 M1653.26 51.4303 L1705.19 51.4303 L1705.19 58.3168 L1653.26 58.3168 L1653.26 51.4303 Z" fill="#000000" fill-rule="nonzero" fill-opacity="1" /><path clip-path="url(#clip110)" d="M1724.27 65.6895 L1737.64 65.6895 L1737.64 19.5497 L1723.1 22.4663 L1723.1 15.0127 L1737.56 12.096 L1745.74 12.096 L1745.74 65.6895 L1759.11 65.6895 L1759.11 72.576 L1724.27 72.576 L1724.27 65.6895 Z" fill="#000000" fill-rule="nonzero" fill-opacity="1" /><path clip-path="url(#clip110)" d="M1793.14 17.4837 Q1786.82 17.4837 1783.62 23.7221 Q1780.46 29.92 1780.46 42.3968 Q1780.46 54.833 1783.62 61.0714 Q1786.82 67.2693 1793.14 67.2693 Q1799.5 67.2693 1802.66 61.0714 Q1805.86 54.833 1805.86 42.3968 Q1805.86 29.92 1802.66 23.7221 Q1799.5 17.4837 1793.14 17.4837 M1793.14 11.0023 Q1803.31 11.0023 1808.65 19.0636 Q1814.04 27.0843 1814.04 42.3968 Q1814.04 57.6687 1808.65 65.73 Q1803.31 73.7508 1793.14 73.7508 Q1782.97 73.7508 1777.58 65.73 Q1772.24 57.6687 1772.24 42.3968 Q1772.24 27.0843 1777.58 19.0636 Q1782.97 11.0023 1793.14 11.0023 Z" fill="#000000" fill-rule="nonzero" fill-opacity="1" /><path clip-path="url(#clip110)" d="M1845.92 17.4837 Q1839.6 17.4837 1836.4 23.7221 Q1833.24 29.92 1833.24 42.3968 Q1833.24 54.833 1836.4 61.0714 Q1839.6 67.2693 1845.92 67.2693 Q1852.28 67.2693 1855.44 61.0714 Q1858.64 54.833 1858.64 42.3968 Q1858.64 29.92 1855.44 23.7221 Q1852.28 17.4837 1845.92 17.4837 M1845.92 11.0023 Q1856.09 11.0023 1861.44 19.0636 Q1866.83 27.0843 1866.83 42.3968 Q1866.83 57.6687 1861.44 65.73 Q1856.09 73.7508 1845.92 73.7508 Q1835.76 73.7508 1830.37 65.73 Q1825.02 57.6687 1825.02 42.3968 Q1825.02 27.0843 1830.37 19.0636 Q1835.76 11.0023 1845.92 11.0023 Z" fill="#000000" fill-rule="nonzero" fill-opacity="1" /><path clip-path="url(#clip110)" d="M1898.71 17.4837 Q1892.39 17.4837 1889.19 23.7221 Q1886.03 29.92 1886.03 42.3968 Q1886.03 54.833 1889.19 61.0714 Q1892.39 67.2693 1898.71 67.2693 Q1905.07 67.2693 1908.23 61.0714 Q1911.43 54.833 1911.43 42.3968 Q1911.43 29.92 1908.23 23.7221 Q1905.07 17.4837 1898.71 17.4837 M1898.71 11.0023 Q1908.87 11.0023 1914.22 19.0636 Q1919.61 27.0843 1919.61 42.3968 Q1919.61 57.6687 1914.22 65.73 Q1908.87 73.7508 1898.71 73.7508 Q1888.54 73.7508 1883.15 65.73 Q1877.8 57.6687 1877.8 42.3968 Q1877.8 27.0843 1883.15 19.0636 Q1888.54 11.0023 1898.71 11.0023 Z" fill="#000000" fill-rule="nonzero" fill-opacity="1" /><path clip-path="url(#clip110)" d="M1951.49 17.4837 Q1945.17 17.4837 1941.97 23.7221 Q1938.81 29.92 1938.81 42.3968 Q1938.81 54.833 1941.97 61.0714 Q1945.17 67.2693 1951.49 67.2693 Q1957.85 67.2693 1961.01 61.0714 Q1964.21 54.833 1964.21 42.3968 Q1964.21 29.92 1961.01 23.7221 Q1957.85 17.4837 1951.49 17.4837 M1951.49 11.0023 Q1961.66 11.0023 1967 19.0636 Q1972.39 27.0843 1972.39 42.3968 Q1972.39 57.6687 1967 65.73 Q1961.66 73.7508 1951.49 73.7508 Q1941.32 73.7508 1935.93 65.73 Q1930.59 57.6687 1930.59 42.3968 Q1930.59 27.0843 1935.93 19.0636 Q1941.32 11.0023 1951.49 11.0023 Z" fill="#000000" fill-rule="nonzero" fill-opacity="1" /><path clip-path="url(#clip110)" d="M2004.27 17.4837 Q1997.95 17.4837 1994.75 23.7221 Q1991.59 29.92 1991.59 42.3968 Q1991.59 54.833 1994.75 61.0714 Q1997.95 67.2693 2004.27 67.2693 Q2010.63 67.2693 2013.79 61.0714 Q2016.99 54.833 2016.99 42.3968 Q2016.99 29.92 2013.79 23.7221 Q2010.63 17.4837 2004.27 17.4837 M2004.27 11.0023 Q2014.44 11.0023 2019.79 19.0636 Q2025.18 27.0843 2025.18 42.3968 Q2025.18 57.6687 2019.79 65.73 Q2014.44 73.7508 2004.27 73.7508 Q1994.11 73.7508 1988.72 65.73 Q1983.37 57.6687 1983.37 42.3968 Q1983.37 27.0843 1988.72 19.0636 Q1994.11 11.0023 2004.27 11.0023 Z" fill="#000000" fill-rule="nonzero" fill-opacity="1" /><path clip-path="url(#clip112)" d="M280.231 1386.4 L280.231 1385.8 L305.383 1385.8 L305.383 1385.21 L330.535 1385.21 L330.535 1385.21 L355.687 1385.21 L355.687 1384.91 L380.839 1384.91 L380.839 1384.91 L405.991 1384.91 L405.991 1384.61 L431.143 1384.61 L431.143 1383.72 L456.295 1383.72 L456.295 1382.53 L481.447 1382.53 L481.447 1380.15 L506.599 1380.15 L506.599 1381.04 L531.751 1381.04 L531.751 1376.88 L556.903 1376.88 L556.903 1368.55 L582.055 1368.55 L582.055 1371.23 L607.207 1371.23 L607.207 1361.41 L632.359 1361.41 L632.359 1343.87 L657.511 1343.87 L657.511 1334.06 L682.663 1334.06 L682.663 1320.67 L707.815 1320.67 L707.815 1295.99 L732.967 1295.99 L732.967 1292.12 L758.119 1292.12 L758.119 1261.19 L783.271 1261.19 L783.271 1236.51 L808.423 1236.51 L808.423 1206.77 L833.575 1206.77 L833.575 1183.58 L858.727 1183.58 L858.727 1112.2 L883.879 1112.2 L883.879 1076.22 L909.031 1076.22 L909.031 1011.68 L934.183 1011.68 L934.183 983.729 L959.335 983.729 L959.335 902.542 L984.487 902.542 L984.487 854.662 L1009.64 854.662 L1009.64 815.109 L1034.79 815.109 L1034.79 741.654 L1059.94 741.654 L1059.94 606.936 L1085.1 606.936 L1085.1 549.243 L1110.25 549.243 L1110.25 517.719 L1135.4 517.719 L1135.4 422.852 L1160.55 422.852 L1160.55 374.377 L1185.7 374.377 L1185.7 335.122 L1210.86 335.122 L1210.86 278.023 L1236.01 278.023 L1236.01 200.107 L1261.16 200.107 L1261.16 275.644 L1286.31 275.644 L1286.31 210.813 L1311.46 210.813 L1311.46 160.256 L1336.62 160.256 L1336.62 261.369 L1361.77 261.369 L1361.77 254.529 L1386.92 254.529 L1386.92 305.977 L1412.07 305.977 L1412.07 295.569 L1437.22 295.569 L1437.22 354.452 L1462.38 354.452 L1462.38 396.087 L1487.53 396.087 L1487.53 443.372 L1512.68 443.372 L1512.68 553.703 L1537.83 553.703 L1537.83 592.364 L1562.98 592.364 L1562.98 694.369 L1588.14 694.369 L1588.14 720.539 L1613.29 720.539 L1613.29 849.904 L1638.44 849.904 L1638.44 893.62 L1663.59 893.62 L1663.59 985.514 L1688.74 985.514 L1688.74 1022.98 L1713.9 1022.98 L1713.9 1091.68 L1739.05 1091.68 L1739.05 1147.59 L1764.2 1147.59 L1764.2 1188.63 L1789.35 1188.63 L1789.35 1206.18 L1814.5 1206.18 L1814.5 1243.35 L1839.66 1243.35 L1839.66 1270.71 L1864.81 1270.71 L1864.81 1291.23 L1889.96 1291.23 L1889.96 1322.75 L1915.11 1322.75 L1915.11 1326.32 L1940.26 1326.32 L1940.26 1343.87 L1965.42 1343.87 L1965.42 1358.74 L1990.57 1358.74 L1990.57 1360.52 L2015.72 1360.52 L2015.72 1364.98 L2040.87 1364.98 L2040.87 1374.8 L2066.02 1374.8 L2066.02 1373.61 L2091.18 1373.61 L2091.18 1378.07 L2116.33 1378.07 L2116.33 1381.34 L2141.48 1381.34 L2141.48 1381.93 L2166.63 1381.93 L2166.63 1383.42 L2191.78 1383.42 L2191.78 1384.02 L2216.94 1384.02 L2216.94 1383.12 L2242.09 1383.12 L2242.09 1385.8 L2267.24 1385.8 L2267.24 1385.8 L2292.39 1385.8 L2292.39 1386.4 L2292.39 1386.4 L2292.39 1386.4 L2267.24 1386.4 L2267.24 1386.4 L2242.09 1386.4 L2242.09 1386.4 L2216.94 1386.4 L2216.94 1386.4 L2191.78 1386.4 L2191.78 1386.4 L2166.63 1386.4 L2166.63 1386.4 L2141.48 1386.4 L2141.48 1386.4 L2116.33 1386.4 L2116.33 1386.4 L2091.18 1386.4 L2091.18 1386.4 L2066.02 1386.4 L2066.02 1386.4 L2040.87 1386.4 L2040.87 1386.4 L2015.72 1386.4 L2015.72 1386.4 L1990.57 1386.4 L1990.57 1386.4 L1965.42 1386.4 L1965.42 1386.4 L1940.26 1386.4 L1940.26 1386.4 L1915.11 1386.4 L1915.11 1386.4 L1889.96 1386.4 L1889.96 1386.4 L1864.81 1386.4 L1864.81 1386.4 L1839.66 1386.4 L1839.66 1386.4 L1814.5 1386.4 L1814.5 1386.4 L1789.35 1386.4 L1789.35 1386.4 L1764.2 1386.4 L1764.2 1386.4 L1739.05 1386.4 L1739.05 1386.4 L1713.9 1386.4 L1713.9 1386.4 L1688.74 1386.4 L1688.74 1386.4 L1663.59 1386.4 L1663.59 1386.4 L1638.44 1386.4 L1638.44 1386.4 L1613.29 1386.4 L1613.29 1386.4 L1588.14 1386.4 L1588.14 1386.4 L1562.98 1386.4 L1562.98 1386.4 L1537.83 1386.4 L1537.83 1386.4 L1512.68 1386.4 L1512.68 1386.4 L1487.53 1386.4 L1487.53 1386.4 L1462.38 1386.4 L1462.38 1386.4 L1437.22 1386.4 L1437.22 1386.4 L1412.07 1386.4 L1412.07 1386.4 L1386.92 1386.4 L1386.92 1386.4 L1361.77 1386.4 L1361.77 1386.4 L1336.62 1386.4 L1336.62 1386.4 L1311.46 1386.4 L1311.46 1386.4 L1286.31 1386.4 L1286.31 1386.4 L1261.16 1386.4 L1261.16 1386.4 L1236.01 1386.4 L1236.01 1386.4 L1210.86 1386.4 L1210.86 1386.4 L1185.7 1386.4 L1185.7 1386.4 L1160.55 1386.4 L1160.55 1386.4 L1135.4 1386.4 L1135.4 1386.4 L1110.25 1386.4 L1110.25 1386.4 L1085.1 1386.4 L1085.1 1386.4 L1059.94 1386.4 L1059.94 1386.4 L1034.79 1386.4 L1034.79 1386.4 L1009.64 1386.4 L1009.64 1386.4 L984.487 1386.4 L984.487 1386.4 L959.335 1386.4 L959.335 1386.4 L934.183 1386.4 L934.183 1386.4 L909.031 1386.4 L909.031 1386.4 L883.879 1386.4 L883.879 1386.4 L858.727 1386.4 L858.727 1386.4 L833.575 1386.4 L833.575 1386.4 L808.423 1386.4 L808.423 1386.4 L783.271 1386.4 L783.271 1386.4 L758.119 1386.4 L758.119 1386.4 L732.967 1386.4 L732.967 1386.4 L707.815 1386.4 L707.815 1386.4 L682.663 1386.4 L682.663 1386.4 L657.511 1386.4 L657.511 1386.4 L632.359 1386.4 L632.359 1386.4 L607.207 1386.4 L607.207 1386.4 L582.055 1386.4 L582.055 1386.4 L556.903 1386.4 L556.903 1386.4 L531.751 1386.4 L531.751 1386.4 L506.599 1386.4 L506.599 1386.4 L481.447 1386.4 L481.447 1386.4 L456.295 1386.4 L456.295 1386.4 L431.143 1386.4 L431.143 1386.4 L405.991 1386.4 L405.991 1386.4 L380.839 1386.4 L380.839 1386.4 L355.687 1386.4 L355.687 1386.4 L330.535 1386.4 L330.535 1386.4 L305.383 1386.4 L305.383 1386.4 L280.231 1386.4 L280.231 1386.4  Z" fill="#68228b" fill-rule="evenodd" fill-opacity="0.7"/>
<polyline clip-path="url(#clip112)" style="stroke:#009af9; stroke-linecap:round; stroke-linejoin:round; stroke-width:4; stroke-opacity:0.7; fill:none" points="280.231,1386.4 280.231,1385.8 305.383,1385.8 305.383,1385.21 330.535,1385.21 355.687,1385.21 355.687,1384.91 380.839,1384.91 405.991,1384.91 405.991,1384.61 431.143,1384.61 431.143,1383.72 456.295,1383.72 456.295,1382.53 481.447,1382.53 481.447,1380.15 506.599,1380.15 506.599,1381.04 531.751,1381.04 531.751,1376.88 556.903,1376.88 556.903,1368.55 582.055,1368.55 582.055,1371.23 607.207,1371.23 607.207,1361.41 632.359,1361.41 632.359,1343.87 657.511,1343.87 657.511,1334.06 682.663,1334.06 682.663,1320.67 707.815,1320.67 707.815,1295.99 732.967,1295.99 732.967,1292.12 758.119,1292.12 758.119,1261.19 783.271,1261.19 783.271,1236.51 808.423,1236.51 808.423,1206.77 833.575,1206.77 833.575,1183.58 858.727,1183.58 858.727,1112.2 883.879,1112.2 883.879,1076.22 909.031,1076.22 909.031,1011.68 934.183,1011.68 934.183,983.729 959.335,983.729 959.335,902.542 984.487,902.542 984.487,854.662 1009.64,854.662 1009.64,815.109 1034.79,815.109 1034.79,741.654 1059.94,741.654 1059.94,606.936 1085.1,606.936 1085.1,549.243 1110.25,549.243 1110.25,517.719 1135.4,517.719 1135.4,422.852 1160.55,422.852 1160.55,374.377 1185.7,374.377 1185.7,335.122 1210.86,335.122 1210.86,278.023 1236.01,278.023 1236.01,200.107 1261.16,200.107 1261.16,275.644 1286.31,275.644 1286.31,210.813 1311.46,210.813 1311.46,160.256 1336.62,160.256 1336.62,261.369 1361.77,261.369 1361.77,254.529 1386.92,254.529 1386.92,305.977 1412.07,305.977 1412.07,295.569 1437.22,295.569 1437.22,354.452 1462.38,354.452 1462.38,396.087 1487.53,396.087 1487.53,443.372 1512.68,443.372 1512.68,553.703 1537.83,553.703 1537.83,592.364 1562.98,592.364 1562.98,694.369 1588.14,694.369 1588.14,720.539 1613.29,720.539 1613.29,849.904 1638.44,849.904 1638.44,893.62 1663.59,893.62 1663.59,985.514 1688.74,985.514 1688.74,1022.98 1713.9,1022.98 1713.9,1091.68 1739.05,1091.68 1739.05,1147.59 1764.2,1147.59 1764.2,1188.63 1789.35,1188.63 1789.35,1206.18 1814.5,1206.18 1814.5,1243.35 1839.66,1243.35 1839.66,1270.71 1864.81,1270.71 1864.81,1291.23 1889.96,1291.23 1889.96,1322.75 1915.11,1322.75 1915.11,1326.32 1940.26,1326.32 1940.26,1343.87 1965.42,1343.87 1965.42,1358.74 1990.57,1358.74 1990.57,1360.52 2015.72,1360.52 2015.72,1364.98 2040.87,1364.98 2040.87,1374.8 2066.02,1374.8 2066.02,1373.61 2091.18,1373.61 2091.18,1378.07 2116.33,1378.07 2116.33,1381.34 2141.48,1381.34 2141.48,1381.93 2166.63,1381.93 2166.63,1383.42 2191.78,1383.42 2191.78,1384.02 2216.94,1384.02 2216.94,1383.12 2242.09,1383.12 2242.09,1385.8 2267.24,1385.8 2292.39,1385.8 2292.39,1386.4 "/>
<polyline clip-path="url(#clip112)" style="stroke:#00008b; stroke-linecap:round; stroke-linejoin:round; stroke-width:8; stroke-opacity:1; fill:none" points="280.231,1386.13 286.781,1386.1 293.331,1386.07 353.897,1385.55 414.462,1384.34 450.859,1382.99 487.257,1380.87 518.03,1378.2 548.804,1374.44 582.232,1368.66 615.661,1360.55 646.479,1350.39 677.297,1336.99 693.817,1328.21 710.338,1318.18 726.858,1306.75 743.378,1293.82 762.518,1276.78 781.658,1257.34 800.799,1235.35 819.939,1210.62 836.949,1186.24 853.958,1159.52 870.968,1130.41 887.977,1098.89 902.893,1069.25 917.809,1037.8 932.725,1004.56 947.641,969.632 963.903,929.729 980.165,888.093 996.428,844.929 1012.69,800.481 1045.41,708.338 1078.13,614.87 1096.21,563.774 1114.3,513.818 1132.39,465.602 1150.47,419.733 1159.08,398.911 1167.68,378.82 1176.29,359.523 1184.89,341.08 1193.5,323.551 1202.1,306.991 1210.71,291.456 1219.31,276.997 1228.26,263.155 1237.2,250.578 1246.15,239.313 1255.1,229.401 1264.04,220.879 1272.99,213.778 1281.94,208.127 1290.89,203.945 1298.42,201.576 1305.95,200.266 1313.48,200.019 1321.01,200.835 1328.54,202.713 1336.07,205.646 1343.6,209.628 1351.14,214.648 1360.33,222.163 1369.53,231.176 1378.72,241.649 1387.92,253.542 1397.11,266.809 1406.31,281.398 1415.5,297.254 1424.69,314.316 1433.12,330.95 1441.54,348.49 1449.96,366.883 1458.39,386.072 1475.23,426.609 1492.08,469.625 1507.64,511.134 1523.2,553.955 1538.76,597.704 1554.31,642.008 1585.84,732.004 1617.36,820.084 1635.02,867.724 1652.68,913.693 1670.35,957.707 1688.01,999.536 1704.02,1035.4 1720.02,1069.23 1736.03,1100.95 1752.03,1130.54 1770.36,1161.8 1788.68,1190.27 1807.01,1216.05 1825.33,1239.22 1842.3,1258.46 1859.27,1275.69 1876.24,1291.03 1893.2,1304.62 1909.93,1316.44 1926.66,1326.81 1943.39,1335.87 1960.12,1343.74 1992.6,1356.07 2025.08,1365.2 2058.38,1371.96 2091.68,1376.74 2128.17,1380.3 2164.65,1382.63 2217.65,1384.59 2270.65,1385.57 2281.52,1385.7 2292.39,1385.8 "/>
<path clip-path="url(#clip110)" d="M1553.03 322.316 L2281.66 322.316 L2281.66 166.796 L1553.03 166.796  Z" fill="#ffffff" fill-rule="evenodd" fill-opacity="1"/>
<polyline clip-path="url(#clip110)" style="stroke:#000000; stroke-linecap:round; stroke-linejoin:round; stroke-width:4; stroke-opacity:1; fill:none" points="1553.03,322.316 2281.66,322.316 2281.66,166.796 1553.03,166.796 1553.03,322.316 "/>
<path clip-path="url(#clip110)" d="M1576.72 239.372 L1718.92 239.372 L1718.92 197.9 L1576.72 197.9 L1576.72 239.372  Z" fill="#68228b" fill-rule="evenodd" fill-opacity="0.7"/>
<polyline clip-path="url(#clip110)" style="stroke:#009af9; stroke-linecap:round; stroke-linejoin:round; stroke-width:4; stroke-opacity:0.7; fill:none" points="1576.72,197.9 1718.92,197.9 "/>
<path clip-path="url(#clip110)" d="M1742.62 201.356 L1749.58 201.356 L1758.4 224.874 L1767.27 201.356 L1774.24 201.356 L1774.24 235.916 L1769.68 235.916 L1769.68 205.569 L1760.76 229.272 L1756.07 229.272 L1747.15 205.569 L1747.15 235.916 L1742.62 235.916 L1742.62 201.356 Z" fill="#000000" fill-rule="nonzero" fill-opacity="1" /><path clip-path="url(#clip110)" d="M1805.51 221.888 L1805.51 223.971 L1785.93 223.971 Q1786.2 228.369 1788.57 230.684 Q1790.95 232.976 1795.19 232.976 Q1797.64 232.976 1799.93 232.374 Q1802.25 231.772 1804.51 230.569 L1804.51 234.596 Q1802.22 235.568 1799.82 236.078 Q1797.41 236.587 1794.93 236.587 Q1788.73 236.587 1785.09 232.976 Q1781.48 229.365 1781.48 223.207 Q1781.48 216.842 1784.91 213.115 Q1788.36 209.365 1794.19 209.365 Q1799.42 209.365 1802.45 212.745 Q1805.51 216.101 1805.51 221.888 M1801.25 220.638 Q1801.2 217.143 1799.28 215.059 Q1797.38 212.976 1794.24 212.976 Q1790.67 212.976 1788.52 214.99 Q1786.39 217.004 1786.07 220.661 L1801.25 220.638 Z" fill="#000000" fill-rule="nonzero" fill-opacity="1" /><path clip-path="url(#clip110)" d="M1816.71 202.629 L1816.71 209.99 L1825.49 209.99 L1825.49 213.3 L1816.71 213.3 L1816.71 227.374 Q1816.71 230.545 1817.57 231.448 Q1818.45 232.351 1821.11 232.351 L1825.49 232.351 L1825.49 235.916 L1821.11 235.916 Q1816.18 235.916 1814.31 234.087 Q1812.43 232.235 1812.43 227.374 L1812.43 213.3 L1809.31 213.3 L1809.31 209.99 L1812.43 209.99 L1812.43 202.629 L1816.71 202.629 Z" fill="#000000" fill-rule="nonzero" fill-opacity="1" /><path clip-path="url(#clip110)" d="M1846.11 213.971 Q1845.39 213.555 1844.54 213.37 Q1843.7 213.161 1842.69 213.161 Q1839.07 213.161 1837.13 215.522 Q1835.21 217.86 1835.21 222.258 L1835.21 235.916 L1830.93 235.916 L1830.93 209.99 L1835.21 209.99 L1835.21 214.018 Q1836.55 211.657 1838.7 210.522 Q1840.86 209.365 1843.94 209.365 Q1844.38 209.365 1844.91 209.434 Q1845.44 209.481 1846.09 209.596 L1846.11 213.971 Z" fill="#000000" fill-rule="nonzero" fill-opacity="1" /><path clip-path="url(#clip110)" d="M1859.58 212.976 Q1856.16 212.976 1854.17 215.661 Q1852.18 218.323 1852.18 222.976 Q1852.18 227.629 1854.14 230.314 Q1856.13 232.976 1859.58 232.976 Q1862.99 232.976 1864.98 230.291 Q1866.97 227.606 1866.97 222.976 Q1866.97 218.37 1864.98 215.684 Q1862.99 212.976 1859.58 212.976 M1859.58 209.365 Q1865.14 209.365 1868.31 212.976 Q1871.48 216.587 1871.48 222.976 Q1871.48 229.342 1868.31 232.976 Q1865.14 236.587 1859.58 236.587 Q1854 236.587 1850.83 232.976 Q1847.69 229.342 1847.69 222.976 Q1847.69 216.587 1850.83 212.976 Q1854 209.365 1859.58 209.365 Z" fill="#000000" fill-rule="nonzero" fill-opacity="1" /><path clip-path="url(#clip110)" d="M1882.66 232.027 L1882.66 245.777 L1878.38 245.777 L1878.38 209.99 L1882.66 209.99 L1882.66 213.925 Q1884 211.61 1886.04 210.499 Q1888.1 209.365 1890.95 209.365 Q1895.67 209.365 1898.61 213.115 Q1901.57 216.865 1901.57 222.976 Q1901.57 229.087 1898.61 232.837 Q1895.67 236.587 1890.95 236.587 Q1888.1 236.587 1886.04 235.476 Q1884 234.342 1882.66 232.027 M1897.15 222.976 Q1897.15 218.277 1895.21 215.615 Q1893.29 212.93 1889.91 212.93 Q1886.53 212.93 1884.58 215.615 Q1882.66 218.277 1882.66 222.976 Q1882.66 227.675 1884.58 230.36 Q1886.53 233.022 1889.91 233.022 Q1893.29 233.022 1895.21 230.36 Q1897.15 227.675 1897.15 222.976 Z" fill="#000000" fill-rule="nonzero" fill-opacity="1" /><path clip-path="url(#clip110)" d="M1918.68 212.976 Q1915.25 212.976 1913.26 215.661 Q1911.27 218.323 1911.27 222.976 Q1911.27 227.629 1913.24 230.314 Q1915.23 232.976 1918.68 232.976 Q1922.08 232.976 1924.07 230.291 Q1926.06 227.606 1926.06 222.976 Q1926.06 218.37 1924.07 215.684 Q1922.08 212.976 1918.68 212.976 M1918.68 209.365 Q1924.24 209.365 1927.41 212.976 Q1930.58 216.587 1930.58 222.976 Q1930.58 229.342 1927.41 232.976 Q1924.24 236.587 1918.68 236.587 Q1913.1 236.587 1909.93 232.976 Q1906.78 229.342 1906.78 222.976 Q1906.78 216.587 1909.93 212.976 Q1913.1 209.365 1918.68 209.365 Z" fill="#000000" fill-rule="nonzero" fill-opacity="1" /><path clip-path="url(#clip110)" d="M1937.64 199.897 L1941.9 199.897 L1941.9 235.916 L1937.64 235.916 L1937.64 199.897 Z" fill="#000000" fill-rule="nonzero" fill-opacity="1" /><path clip-path="url(#clip110)" d="M1950.81 209.99 L1955.07 209.99 L1955.07 235.916 L1950.81 235.916 L1950.81 209.99 M1950.81 199.897 L1955.07 199.897 L1955.07 205.291 L1950.81 205.291 L1950.81 199.897 Z" fill="#000000" fill-rule="nonzero" fill-opacity="1" /><path clip-path="url(#clip110)" d="M1982.64 210.985 L1982.64 214.967 Q1980.83 213.971 1979 213.485 Q1977.2 212.976 1975.35 212.976 Q1971.2 212.976 1968.91 215.615 Q1966.62 218.231 1966.62 222.976 Q1966.62 227.721 1968.91 230.36 Q1971.2 232.976 1975.35 232.976 Q1977.2 232.976 1979 232.49 Q1980.83 231.981 1982.64 230.985 L1982.64 234.92 Q1980.86 235.754 1978.93 236.17 Q1977.04 236.587 1974.88 236.587 Q1969.03 236.587 1965.58 232.906 Q1962.13 229.226 1962.13 222.976 Q1962.13 216.633 1965.6 212.999 Q1969.1 209.365 1975.16 209.365 Q1977.13 209.365 1979 209.782 Q1980.88 210.175 1982.64 210.985 Z" fill="#000000" fill-rule="nonzero" fill-opacity="1" /><path clip-path="url(#clip110)" d="M2012.22 221.888 L2012.22 223.971 L1992.64 223.971 Q1992.92 228.369 1995.28 230.684 Q1997.66 232.976 2001.9 232.976 Q2004.35 232.976 2006.64 232.374 Q2008.96 231.772 2011.23 230.569 L2011.23 234.596 Q2008.93 235.568 2006.53 236.078 Q2004.12 236.587 2001.64 236.587 Q1995.44 236.587 1991.8 232.976 Q1988.19 229.365 1988.19 223.207 Q1988.19 216.842 1991.62 213.115 Q1995.07 209.365 2000.9 209.365 Q2006.13 209.365 2009.17 212.745 Q2012.22 216.101 2012.22 221.888 M2007.96 220.638 Q2007.92 217.143 2005.99 215.059 Q2004.1 212.976 2000.95 212.976 Q1997.38 212.976 1995.23 214.99 Q1993.1 217.004 1992.78 220.661 L2007.96 220.638 Z" fill="#000000" fill-rule="nonzero" fill-opacity="1" /><path clip-path="url(#clip110)" d="M2046.02 205.962 L2039.67 223.161 L2052.38 223.161 L2046.02 205.962 M2043.38 201.356 L2048.68 201.356 L2061.85 235.916 L2056.99 235.916 L2053.84 227.05 L2038.26 227.05 L2035.11 235.916 L2030.18 235.916 L2043.38 201.356 Z" fill="#000000" fill-rule="nonzero" fill-opacity="1" /><path clip-path="url(#clip110)" d="M2066.71 199.897 L2070.97 199.897 L2070.97 235.916 L2066.71 235.916 L2066.71 199.897 Z" fill="#000000" fill-rule="nonzero" fill-opacity="1" /><path clip-path="url(#clip110)" d="M2096.94 222.652 Q2096.94 218.022 2095.02 215.476 Q2093.12 212.93 2089.67 212.93 Q2086.25 212.93 2084.33 215.476 Q2082.43 218.022 2082.43 222.652 Q2082.43 227.258 2084.33 229.805 Q2086.25 232.351 2089.67 232.351 Q2093.12 232.351 2095.02 229.805 Q2096.94 227.258 2096.94 222.652 M2101.2 232.698 Q2101.2 239.318 2098.26 242.536 Q2095.32 245.777 2089.26 245.777 Q2087.01 245.777 2085.02 245.43 Q2083.03 245.105 2081.16 244.411 L2081.16 240.268 Q2083.03 241.286 2084.86 241.772 Q2086.69 242.258 2088.59 242.258 Q2092.78 242.258 2094.86 240.059 Q2096.94 237.883 2096.94 233.462 L2096.94 231.356 Q2095.62 233.647 2093.56 234.781 Q2091.5 235.916 2088.63 235.916 Q2083.86 235.916 2080.95 232.281 Q2078.03 228.647 2078.03 222.652 Q2078.03 216.633 2080.95 212.999 Q2083.86 209.365 2088.63 209.365 Q2091.5 209.365 2093.56 210.499 Q2095.62 211.633 2096.94 213.925 L2096.94 209.99 L2101.2 209.99 L2101.2 232.698 Z" fill="#000000" fill-rule="nonzero" fill-opacity="1" /><path clip-path="url(#clip110)" d="M2120.02 212.976 Q2116.6 212.976 2114.61 215.661 Q2112.61 218.323 2112.61 222.976 Q2112.61 227.629 2114.58 230.314 Q2116.57 232.976 2120.02 232.976 Q2123.42 232.976 2125.42 230.291 Q2127.41 227.606 2127.41 222.976 Q2127.41 218.37 2125.42 215.684 Q2123.42 212.976 2120.02 212.976 M2120.02 209.365 Q2125.58 209.365 2128.75 212.976 Q2131.92 216.587 2131.92 222.976 Q2131.92 229.342 2128.75 232.976 Q2125.58 236.587 2120.02 236.587 Q2114.44 236.587 2111.27 232.976 Q2108.12 229.342 2108.12 222.976 Q2108.12 216.587 2111.27 212.976 Q2114.44 209.365 2120.02 209.365 Z" fill="#000000" fill-rule="nonzero" fill-opacity="1" /><path clip-path="url(#clip110)" d="M2154 213.971 Q2153.29 213.555 2152.43 213.37 Q2151.6 213.161 2150.58 213.161 Q2146.97 213.161 2145.02 215.522 Q2143.1 217.86 2143.1 222.258 L2143.1 235.916 L2138.82 235.916 L2138.82 209.99 L2143.1 209.99 L2143.1 214.018 Q2144.44 211.657 2146.6 210.522 Q2148.75 209.365 2151.83 209.365 Q2152.27 209.365 2152.8 209.434 Q2153.33 209.481 2153.98 209.596 L2154 213.971 Z" fill="#000000" fill-rule="nonzero" fill-opacity="1" /><path clip-path="url(#clip110)" d="M2158.47 209.99 L2162.73 209.99 L2162.73 235.916 L2158.47 235.916 L2158.47 209.99 M2158.47 199.897 L2162.73 199.897 L2162.73 205.291 L2158.47 205.291 L2158.47 199.897 Z" fill="#000000" fill-rule="nonzero" fill-opacity="1" /><path clip-path="url(#clip110)" d="M2175.85 202.629 L2175.85 209.99 L2184.63 209.99 L2184.63 213.3 L2175.85 213.3 L2175.85 227.374 Q2175.85 230.545 2176.71 231.448 Q2177.59 232.351 2180.25 232.351 L2184.63 232.351 L2184.63 235.916 L2180.25 235.916 Q2175.32 235.916 2173.45 234.087 Q2171.57 232.235 2171.57 227.374 L2171.57 213.3 L2168.45 213.3 L2168.45 209.99 L2171.57 209.99 L2171.57 202.629 L2175.85 202.629 Z" fill="#000000" fill-rule="nonzero" fill-opacity="1" /><path clip-path="url(#clip110)" d="M2211.78 220.268 L2211.78 235.916 L2207.52 235.916 L2207.52 220.407 Q2207.52 216.726 2206.09 214.897 Q2204.65 213.069 2201.78 213.069 Q2198.33 213.069 2196.34 215.268 Q2194.35 217.467 2194.35 221.263 L2194.35 235.916 L2190.07 235.916 L2190.07 199.897 L2194.35 199.897 L2194.35 214.018 Q2195.88 211.68 2197.94 210.522 Q2200.02 209.365 2202.73 209.365 Q2207.2 209.365 2209.49 212.143 Q2211.78 214.897 2211.78 220.268 Z" fill="#000000" fill-rule="nonzero" fill-opacity="1" /><path clip-path="url(#clip110)" d="M2240.46 214.967 Q2242.06 212.096 2244.28 210.731 Q2246.5 209.365 2249.51 209.365 Q2253.56 209.365 2255.76 212.212 Q2257.96 215.036 2257.96 220.268 L2257.96 235.916 L2253.68 235.916 L2253.68 220.407 Q2253.68 216.68 2252.36 214.874 Q2251.04 213.069 2248.33 213.069 Q2245.02 213.069 2243.1 215.268 Q2241.18 217.467 2241.18 221.263 L2241.18 235.916 L2236.9 235.916 L2236.9 220.407 Q2236.9 216.657 2235.58 214.874 Q2234.26 213.069 2231.5 213.069 Q2228.24 213.069 2226.32 215.291 Q2224.4 217.49 2224.4 221.263 L2224.4 235.916 L2220.11 235.916 L2220.11 209.99 L2224.4 209.99 L2224.4 214.018 Q2225.85 211.633 2227.89 210.499 Q2229.93 209.365 2232.73 209.365 Q2235.55 209.365 2237.52 210.8 Q2239.51 212.235 2240.46 214.967 Z" fill="#000000" fill-rule="nonzero" fill-opacity="1" /><polyline clip-path="url(#clip110)" style="stroke:#00008b; stroke-linecap:round; stroke-linejoin:round; stroke-width:8; stroke-opacity:1; fill:none" points="1576.72,270.476 1718.92,270.476 "/>
<path clip-path="url(#clip110)" d="M1742.62 253.196 L1748.91 253.196 L1764.24 282.108 L1764.24 253.196 L1768.77 253.196 L1768.77 287.756 L1762.48 287.756 L1747.15 258.844 L1747.15 287.756 L1742.62 287.756 L1742.62 253.196 Z" fill="#000000" fill-rule="nonzero" fill-opacity="1" /><path clip-path="url(#clip110)" d="M1787.94 264.816 Q1784.51 264.816 1782.52 267.501 Q1780.53 270.163 1780.53 274.816 Q1780.53 279.469 1782.5 282.154 Q1784.49 284.816 1787.94 284.816 Q1791.34 284.816 1793.33 282.131 Q1795.32 279.446 1795.32 274.816 Q1795.32 270.21 1793.33 267.524 Q1791.34 264.816 1787.94 264.816 M1787.94 261.205 Q1793.5 261.205 1796.67 264.816 Q1799.84 268.427 1799.84 274.816 Q1799.84 281.182 1796.67 284.816 Q1793.5 288.427 1787.94 288.427 Q1782.36 288.427 1779.19 284.816 Q1776.04 281.182 1776.04 274.816 Q1776.04 268.427 1779.19 264.816 Q1782.36 261.205 1787.94 261.205 Z" fill="#000000" fill-rule="nonzero" fill-opacity="1" /><path clip-path="url(#clip110)" d="M1821.92 265.811 Q1821.2 265.395 1820.35 265.21 Q1819.51 265.001 1818.5 265.001 Q1814.88 265.001 1812.94 267.362 Q1811.02 269.7 1811.02 274.098 L1811.02 287.756 L1806.74 287.756 L1806.74 261.83 L1811.02 261.83 L1811.02 265.858 Q1812.36 263.497 1814.51 262.362 Q1816.67 261.205 1819.75 261.205 Q1820.19 261.205 1820.72 261.274 Q1821.25 261.321 1821.9 261.436 L1821.92 265.811 Z" fill="#000000" fill-rule="nonzero" fill-opacity="1" /><path clip-path="url(#clip110)" d="M1845.74 266.807 Q1847.34 263.936 1849.56 262.571 Q1851.78 261.205 1854.79 261.205 Q1858.84 261.205 1861.04 264.052 Q1863.24 266.876 1863.24 272.108 L1863.24 287.756 L1858.96 287.756 L1858.96 272.247 Q1858.96 268.52 1857.64 266.714 Q1856.32 264.909 1853.61 264.909 Q1850.3 264.909 1848.38 267.108 Q1846.46 269.307 1846.46 273.103 L1846.46 287.756 L1842.18 287.756 L1842.18 272.247 Q1842.18 268.497 1840.86 266.714 Q1839.54 264.909 1836.78 264.909 Q1833.52 264.909 1831.6 267.131 Q1829.68 269.33 1829.68 273.103 L1829.68 287.756 L1825.39 287.756 L1825.39 261.83 L1829.68 261.83 L1829.68 265.858 Q1831.13 263.473 1833.17 262.339 Q1835.21 261.205 1838.01 261.205 Q1840.83 261.205 1842.8 262.64 Q1844.79 264.075 1845.74 266.807 Z" fill="#000000" fill-rule="nonzero" fill-opacity="1" /><path clip-path="url(#clip110)" d="M1883.52 274.723 Q1878.36 274.723 1876.37 275.904 Q1874.37 277.084 1874.37 279.932 Q1874.37 282.2 1875.86 283.543 Q1877.36 284.862 1879.93 284.862 Q1883.47 284.862 1885.6 282.362 Q1887.75 279.839 1887.75 275.672 L1887.75 274.723 L1883.52 274.723 M1892.01 272.964 L1892.01 287.756 L1887.75 287.756 L1887.75 283.821 Q1886.3 286.182 1884.12 287.316 Q1881.94 288.427 1878.8 288.427 Q1874.81 288.427 1872.45 286.205 Q1870.12 283.959 1870.12 280.209 Q1870.12 275.834 1873.03 273.612 Q1875.97 271.39 1881.78 271.39 L1887.75 271.39 L1887.75 270.973 Q1887.75 268.034 1885.81 266.436 Q1883.89 264.816 1880.39 264.816 Q1878.17 264.816 1876.06 265.348 Q1873.96 265.881 1872.01 266.946 L1872.01 263.01 Q1874.35 262.108 1876.55 261.668 Q1878.75 261.205 1880.83 261.205 Q1886.46 261.205 1889.24 264.122 Q1892.01 267.038 1892.01 272.964 Z" fill="#000000" fill-rule="nonzero" fill-opacity="1" /><path clip-path="url(#clip110)" d="M1900.79 251.737 L1905.05 251.737 L1905.05 287.756 L1900.79 287.756 L1900.79 251.737 Z" fill="#000000" fill-rule="nonzero" fill-opacity="1" /><path clip-path="url(#clip110)" d="M1946.09 265.765 L1946.09 251.737 L1950.35 251.737 L1950.35 287.756 L1946.09 287.756 L1946.09 283.867 Q1944.74 286.182 1942.68 287.316 Q1940.65 288.427 1937.78 288.427 Q1933.08 288.427 1930.12 284.677 Q1927.18 280.927 1927.18 274.816 Q1927.18 268.705 1930.12 264.955 Q1933.08 261.205 1937.78 261.205 Q1940.65 261.205 1942.68 262.339 Q1944.74 263.45 1946.09 265.765 M1931.57 274.816 Q1931.57 279.515 1933.49 282.2 Q1935.44 284.862 1938.82 284.862 Q1942.2 284.862 1944.14 282.2 Q1946.09 279.515 1946.09 274.816 Q1946.09 270.117 1944.14 267.455 Q1942.2 264.77 1938.82 264.77 Q1935.44 264.77 1933.49 267.455 Q1931.57 270.117 1931.57 274.816 Z" fill="#000000" fill-rule="nonzero" fill-opacity="1" /><path clip-path="url(#clip110)" d="M1959.12 261.83 L1963.38 261.83 L1963.38 287.756 L1959.12 287.756 L1959.12 261.83 M1959.12 251.737 L1963.38 251.737 L1963.38 257.131 L1959.12 257.131 L1959.12 251.737 Z" fill="#000000" fill-rule="nonzero" fill-opacity="1" /><path clip-path="url(#clip110)" d="M1988.82 262.594 L1988.82 266.622 Q1987.01 265.696 1985.07 265.233 Q1983.12 264.77 1981.04 264.77 Q1977.87 264.77 1976.27 265.742 Q1974.7 266.714 1974.7 268.659 Q1974.7 270.14 1975.83 270.997 Q1976.97 271.83 1980.39 272.594 L1981.85 272.918 Q1986.39 273.89 1988.29 275.672 Q1990.21 277.432 1990.21 280.603 Q1990.21 284.214 1987.34 286.321 Q1984.49 288.427 1979.49 288.427 Q1977.41 288.427 1975.14 288.01 Q1972.89 287.617 1970.39 286.807 L1970.39 282.409 Q1972.75 283.635 1975.05 284.26 Q1977.34 284.862 1979.58 284.862 Q1982.59 284.862 1984.21 283.844 Q1985.83 282.802 1985.83 280.927 Q1985.83 279.191 1984.65 278.265 Q1983.49 277.339 1979.54 276.483 L1978.05 276.135 Q1974.1 275.302 1972.34 273.589 Q1970.58 271.853 1970.58 268.844 Q1970.58 265.186 1973.17 263.196 Q1975.76 261.205 1980.53 261.205 Q1982.89 261.205 1984.98 261.552 Q1987.06 261.899 1988.82 262.594 Z" fill="#000000" fill-rule="nonzero" fill-opacity="1" /><path clip-path="url(#clip110)" d="M2001.2 254.469 L2001.2 261.83 L2009.98 261.83 L2009.98 265.14 L2001.2 265.14 L2001.2 279.214 Q2001.2 282.385 2002.06 283.288 Q2002.94 284.191 2005.6 284.191 L2009.98 284.191 L2009.98 287.756 L2005.6 287.756 Q2000.67 287.756 1998.8 285.927 Q1996.92 284.075 1996.92 279.214 L1996.92 265.14 L1993.8 265.14 L1993.8 261.83 L1996.92 261.83 L1996.92 254.469 L2001.2 254.469 Z" fill="#000000" fill-rule="nonzero" fill-opacity="1" /><path clip-path="url(#clip110)" d="M2030.6 265.811 Q2029.88 265.395 2029.03 265.21 Q2028.19 265.001 2027.18 265.001 Q2023.56 265.001 2021.62 267.362 Q2019.7 269.7 2019.7 274.098 L2019.7 287.756 L2015.42 287.756 L2015.42 261.83 L2019.7 261.83 L2019.7 265.858 Q2021.04 263.497 2023.19 262.362 Q2025.35 261.205 2028.43 261.205 Q2028.86 261.205 2029.4 261.274 Q2029.93 261.321 2030.58 261.436 L2030.6 265.811 Z" fill="#000000" fill-rule="nonzero" fill-opacity="1" /><path clip-path="url(#clip110)" d="M2035.07 261.83 L2039.33 261.83 L2039.33 287.756 L2035.07 287.756 L2035.07 261.83 M2035.07 251.737 L2039.33 251.737 L2039.33 257.131 L2035.07 257.131 L2035.07 251.737 Z" fill="#000000" fill-rule="nonzero" fill-opacity="1" /><path clip-path="url(#clip110)" d="M2066.85 274.816 Q2066.85 270.117 2064.91 267.455 Q2062.99 264.77 2059.61 264.77 Q2056.23 264.77 2054.28 267.455 Q2052.36 270.117 2052.36 274.816 Q2052.36 279.515 2054.28 282.2 Q2056.23 284.862 2059.61 284.862 Q2062.99 284.862 2064.91 282.2 Q2066.85 279.515 2066.85 274.816 M2052.36 265.765 Q2053.7 263.45 2055.74 262.339 Q2057.8 261.205 2060.65 261.205 Q2065.37 261.205 2068.31 264.955 Q2071.27 268.705 2071.27 274.816 Q2071.27 280.927 2068.31 284.677 Q2065.37 288.427 2060.65 288.427 Q2057.8 288.427 2055.74 287.316 Q2053.7 286.182 2052.36 283.867 L2052.36 287.756 L2048.08 287.756 L2048.08 251.737 L2052.36 251.737 L2052.36 265.765 Z" fill="#000000" fill-rule="nonzero" fill-opacity="1" /><path clip-path="url(#clip110)" d="M2077.89 277.524 L2077.89 261.83 L2082.15 261.83 L2082.15 277.362 Q2082.15 281.043 2083.59 282.895 Q2085.02 284.723 2087.89 284.723 Q2091.34 284.723 2093.33 282.524 Q2095.35 280.325 2095.35 276.529 L2095.35 261.83 L2099.61 261.83 L2099.61 287.756 L2095.35 287.756 L2095.35 283.774 Q2093.8 286.135 2091.73 287.293 Q2089.7 288.427 2086.99 288.427 Q2082.52 288.427 2080.21 285.649 Q2077.89 282.871 2077.89 277.524 M2088.61 261.205 L2088.61 261.205 Z" fill="#000000" fill-rule="nonzero" fill-opacity="1" /><path clip-path="url(#clip110)" d="M2112.59 254.469 L2112.59 261.83 L2121.36 261.83 L2121.36 265.14 L2112.59 265.14 L2112.59 279.214 Q2112.59 282.385 2113.45 283.288 Q2114.33 284.191 2116.99 284.191 L2121.36 284.191 L2121.36 287.756 L2116.99 287.756 Q2112.06 287.756 2110.18 285.927 Q2108.31 284.075 2108.31 279.214 L2108.31 265.14 L2105.18 265.14 L2105.18 261.83 L2108.31 261.83 L2108.31 254.469 L2112.59 254.469 Z" fill="#000000" fill-rule="nonzero" fill-opacity="1" /><path clip-path="url(#clip110)" d="M2126.97 261.83 L2131.23 261.83 L2131.23 287.756 L2126.97 287.756 L2126.97 261.83 M2126.97 251.737 L2131.23 251.737 L2131.23 257.131 L2126.97 257.131 L2126.97 251.737 Z" fill="#000000" fill-rule="nonzero" fill-opacity="1" /><path clip-path="url(#clip110)" d="M2150.18 264.816 Q2146.76 264.816 2144.77 267.501 Q2142.78 270.163 2142.78 274.816 Q2142.78 279.469 2144.74 282.154 Q2146.73 284.816 2150.18 284.816 Q2153.59 284.816 2155.58 282.131 Q2157.57 279.446 2157.57 274.816 Q2157.57 270.21 2155.58 267.524 Q2153.59 264.816 2150.18 264.816 M2150.18 261.205 Q2155.74 261.205 2158.91 264.816 Q2162.08 268.427 2162.08 274.816 Q2162.08 281.182 2158.91 284.816 Q2155.74 288.427 2150.18 288.427 Q2144.6 288.427 2141.43 284.816 Q2138.29 281.182 2138.29 274.816 Q2138.29 268.427 2141.43 264.816 Q2144.6 261.205 2150.18 261.205 Z" fill="#000000" fill-rule="nonzero" fill-opacity="1" /><path clip-path="url(#clip110)" d="M2190.69 272.108 L2190.69 287.756 L2186.43 287.756 L2186.43 272.247 Q2186.43 268.566 2185 266.737 Q2183.56 264.909 2180.69 264.909 Q2177.24 264.909 2175.25 267.108 Q2173.26 269.307 2173.26 273.103 L2173.26 287.756 L2168.98 287.756 L2168.98 261.83 L2173.26 261.83 L2173.26 265.858 Q2174.79 263.52 2176.85 262.362 Q2178.93 261.205 2181.64 261.205 Q2186.11 261.205 2188.4 263.983 Q2190.69 266.737 2190.69 272.108 Z" fill="#000000" fill-rule="nonzero" fill-opacity="1" /></svg>
